<svg width="30" height="30" viewBox="0 0 30 30" fill="none" xmlns="http://www.w3.org/2000/svg">
<rect width="30" height="30" rx="8" fill="url(#paint0_linear_309_6)"/>
<path d="M9 26C8.44771 26 8 25.5523 8 25C8 24.4477 8.44771 24 9 24C9.55228 24 10 24.4477 10 25C10 25.5523 9.55228 26 9 26Z" fill="#B5FF00"/>
<path d="M21 6C20.4477 6 20 5.55228 20 5C20 4.44772 20.4477 4 21 4C21.5523 4 22 4.44772 22 5C22 5.55228 21.5523 6 21 6Z" fill="#B5FF00"/>
<path d="M25 10C24.4477 10 24 9.55228 24 9C24 8.44771 24.4477 8 25 8C25.5523 8 26 8.44771 26 9C26 9.55228 25.5523 10 25 10Z" fill="#B5FF00"/>
<path d="M13.6948 8.02656C14.0267 6.65781 15.9733 6.65781 16.3052 8.02656L17.2185 11.7928C17.337 12.2815 17.7185 12.663 18.2072 12.7815L21.9734 13.6948C23.3422 14.0267 23.3422 15.9733 21.9734 16.3052L18.2072 17.2185C17.7185 17.337 17.337 17.7185 17.2185 18.2072L16.3052 21.9734C15.9733 23.3422 14.0267 23.3422 13.6948 21.9734L12.7815 18.2072C12.663 17.7185 12.2815 17.337 11.7928 17.2185L8.02656 16.3052C6.65781 15.9733 6.65781 14.0267 8.02656 13.6948L11.7928 12.7815C12.2815 12.663 12.663 12.2815 12.7815 11.7928L13.6948 8.02656Z" fill="#B5FF00"/>
<path fill-rule="evenodd" clip-rule="evenodd" d="M25.3147 17.9953C25.7804 18.1692 26.017 18.6876 25.8432 19.1532C24.7173 22.1697 22.3801 24.5926 19.4228 25.8302C18.9643 26.0221 18.4371 25.806 18.2452 25.3474C18.0533 24.8889 18.2694 24.3617 18.728 24.1698C21.2274 23.1238 23.2052 21.0734 24.1568 18.5238C24.3306 18.0581 24.849 17.8215 25.3147 17.9953Z" fill="#B5FF00"/>
<path fill-rule="evenodd" clip-rule="evenodd" d="M12.0208 4.68464C12.1949 5.15018 11.9587 5.66877 11.4932 5.84294C8.92955 6.80206 6.87073 8.8029 5.83251 11.3306C5.64367 11.7904 5.11785 12.0101 4.65806 11.8212C4.19828 11.6324 3.97864 11.1066 4.16749 10.6468C5.39534 7.6573 7.82798 5.29233 10.8625 4.15706C11.328 3.98289 11.8466 4.2191 12.0208 4.68464Z" fill="#B5FF00"/>
<path d="M5 22C4.44772 22 4 21.5523 4 21C4 20.4477 4.44772 20 5 20C5.55228 20 6 20.4477 6 21C6 21.5523 5.55228 22 5 22Z" fill="#B5FF00"/>
<defs>
<linearGradient id="paint0_linear_309_6" x1="15" y1="0" x2="15" y2="30" gradientUnits="userSpaceOnUse">
<stop stop-color="#1A1A1A"/>
<stop offset="1" stop-color="#212B09"/>
</linearGradient>
</defs>
</svg>
