<svg width="32" height="32" viewBox="0 0 32 32" fill="none" xmlns="http://www.w3.org/2000/svg">
<g clip-path="url(#clip0_5244_9854)">
<rect width="32" height="32" fill="#262626"/>
<path d="M9.59987 27.7329C9.01076 27.7329 8.5332 27.2554 8.5332 26.6663C8.5332 26.0772 9.01076 25.5996 9.59987 25.5996C10.189 25.5996 10.6665 26.0772 10.6665 26.6663C10.6665 27.2554 10.189 27.7329 9.59987 27.7329Z" fill="#B5FF00"/>
<path d="M22.3999 6.39994C21.8108 6.39994 21.3333 5.92237 21.3333 5.33327C21.3333 4.74417 21.8108 4.2666 22.3999 4.2666C22.989 4.2666 23.4666 4.74417 23.4666 5.33327C23.4666 5.92237 22.989 6.39994 22.3999 6.39994Z" fill="#B5FF00"/>
<path d="M26.6665 10.6665C26.0774 10.6665 25.5999 10.189 25.5999 9.59987C25.5999 9.01076 26.0774 8.5332 26.6665 8.5332C27.2556 8.5332 27.7332 9.01076 27.7332 9.59987C27.7332 10.189 27.2556 10.6665 26.6665 10.6665Z" fill="#B5FF00"/>
<path d="M14.6077 8.5618C14.9617 7.1018 17.0381 7.1018 17.3921 8.5618L18.3663 12.5791C18.4927 13.1004 18.8996 13.5073 19.4209 13.6337L23.4382 14.6079C24.8982 14.9619 24.8982 17.0383 23.4382 17.3923L19.4209 18.3665C18.8996 18.4929 18.4927 18.8999 18.3663 19.4211L17.3921 23.4384C17.0381 24.8985 14.9617 24.8985 14.6077 23.4384L13.6335 19.4211C13.5071 18.8999 13.1002 18.4929 12.5789 18.3665L8.56155 17.3923C7.10155 17.0383 7.10155 14.9619 8.56155 14.6079L12.5789 13.6337C13.1002 13.5073 13.5071 13.1004 13.6335 12.5791L14.6077 8.5618Z" fill="#B5FF00"/>
<path fill-rule="evenodd" clip-rule="evenodd" d="M27.0022 19.1946C27.499 19.3801 27.7513 19.9331 27.5659 20.4297C26.365 23.6473 23.872 26.2318 20.7175 27.5519C20.2284 27.7566 19.6661 27.5261 19.4614 27.0369C19.2567 26.5478 19.4872 25.9855 19.9764 25.7808C22.6424 24.665 24.7521 22.478 25.7671 19.7584C25.9525 19.2616 26.5055 19.0093 27.0022 19.1946Z" fill="#B5FF00"/>
<path fill-rule="evenodd" clip-rule="evenodd" d="M12.8222 4.99692C13.0079 5.4935 12.7559 6.04666 12.2594 6.23244C9.52482 7.2555 7.32874 9.38973 6.22131 12.0859C6.01988 12.5764 5.459 12.8107 4.96856 12.6093C4.47813 12.4079 4.24385 11.847 4.44529 11.3566C5.75499 8.16776 8.34981 5.64513 11.5866 4.43417C12.0832 4.24839 12.6363 4.50035 12.8222 4.99692Z" fill="#B5FF00"/>
<path d="M5.33327 23.4663C4.74417 23.4663 4.2666 22.9888 4.2666 22.3997C4.2666 21.8106 4.74417 21.333 5.33327 21.333C5.92237 21.333 6.39994 21.8106 6.39994 22.3997C6.39994 22.9888 5.92237 23.4663 5.33327 23.4663Z" fill="#B5FF00"/>
<g filter="url(#filter0_f_5244_9854)">
<path d="M20.2667 29.8662H12.8V30.9329H20.2667V29.8662Z" fill="#B5FF00"/>
</g>
</g>
<defs>
<filter id="filter0_f_5244_9854" x="8.80005" y="25.8662" width="15.4666" height="9.06641" filterUnits="userSpaceOnUse" color-interpolation-filters="sRGB">
<feFlood flood-opacity="0" result="BackgroundImageFix"/>
<feBlend mode="normal" in="SourceGraphic" in2="BackgroundImageFix" result="shape"/>
<feGaussianBlur stdDeviation="2" result="effect1_foregroundBlur_5244_9854"/>
</filter>
<clipPath id="clip0_5244_9854">
<rect width="32" height="32" fill="white"/>
</clipPath>
</defs>
</svg>
